<?xml version="1.0" encoding="UTF-8" standalone="no"?>
<!-- Created with Inkscape (http://www.inkscape.org/) -->

<svg
   xmlns:dc="http://purl.org/dc/elements/1.1/"
   xmlns:cc="http://creativecommons.org/ns#"
   xmlns:rdf="http://www.w3.org/1999/02/22-rdf-syntax-ns#"
   xmlns:svg="http://www.w3.org/2000/svg"
   xmlns="http://www.w3.org/2000/svg"
   xmlns:xlink="http://www.w3.org/1999/xlink"
   xmlns:sodipodi="http://sodipodi.sourceforge.net/DTD/sodipodi-0.dtd"
   xmlns:inkscape="http://www.inkscape.org/namespaces/inkscape"
   width="48px"
   height="48px"
   id="svg3440"
   sodipodi:version="0.32"
   inkscape:version="0.48.4 r9939"
   sodipodi:docname="sil-wesay.svg"
   version="1.1">
  <defs
     id="defs3">
    <linearGradient
       inkscape:collect="always"
       id="linearGradient4080">
      <stop
         style="stop-color:#6886b8;stop-opacity:1;"
         offset="0"
         id="stop4082" />
      <stop
         style="stop-color:#6886b8;stop-opacity:0;"
         offset="1"
         id="stop4084" />
    </linearGradient>
    <linearGradient
       inkscape:collect="always"
       id="linearGradient3940">
      <stop
         style="stop-color:#6684b5;stop-opacity:1;"
         offset="0"
         id="stop3942" />
      <stop
         style="stop-color:#6684b5;stop-opacity:0;"
         offset="1"
         id="stop3944" />
    </linearGradient>
    <linearGradient
       id="linearGradient3856">
      <stop
         style="stop-color:#a6b9d5;stop-opacity:0;"
         offset="0"
         id="stop3858" />
      <stop
         style="stop-color:#a6b9d5;stop-opacity:1;"
         offset="1"
         id="stop3860" />
    </linearGradient>
    <linearGradient
       id="linearGradient3671">
      <stop
         style="stop-color:white;stop-opacity:1;"
         offset="0"
         id="stop3673" />
      <stop
         style="stop-color:#fc9e00;stop-opacity:1;"
         offset="1"
         id="stop3675" />
    </linearGradient>
    <radialGradient
       inkscape:collect="always"
       xlink:href="#linearGradient3671"
       id="radialGradient3679"
       cx="31.466251"
       cy="12.909826"
       fx="31.466251"
       fy="12.909826"
       r="9.8690252"
       gradientTransform="matrix(-1.905133,4.46105e-2,2.420237e-2,1.143219,89.57435,-6.430408)"
       gradientUnits="userSpaceOnUse" />
    <linearGradient
       inkscape:collect="always"
       id="linearGradient6001">
      <stop
         style="stop-color:#ffffff;stop-opacity:1;"
         offset="0"
         id="stop6003" />
      <stop
         style="stop-color:#ffffff;stop-opacity:0;"
         offset="1"
         id="stop6005" />
    </linearGradient>
    <linearGradient
       inkscape:collect="always"
       id="linearGradient4825">
      <stop
         style="stop-color:#ffffff;stop-opacity:1;"
         offset="0"
         id="stop4827" />
      <stop
         style="stop-color:#ffffff;stop-opacity:0;"
         offset="1"
         id="stop4829" />
    </linearGradient>
    <linearGradient
       id="linearGradient4126">
      <stop
         style="stop-color:#ffffff;stop-opacity:1.0000000;"
         offset="0.0000000"
         id="stop4128" />
      <stop
         style="stop-color:#ffffff;stop-opacity:0.16494845;"
         offset="1.0000000"
         id="stop4130" />
    </linearGradient>
    <linearGradient
       inkscape:collect="always"
       id="linearGradient4114">
      <stop
         style="stop-color:#000000;stop-opacity:1;"
         offset="0"
         id="stop4116" />
      <stop
         style="stop-color:#000000;stop-opacity:0;"
         offset="1"
         id="stop4118" />
    </linearGradient>
    <linearGradient
       id="linearGradient3962">
      <stop
         style="stop-color:#d3e9ff;stop-opacity:1.0000000;"
         offset="0.0000000"
         id="stop3964" />
      <stop
         style="stop-color:#d3e9ff;stop-opacity:1.0000000;"
         offset="0.15517241"
         id="stop4134" />
      <stop
         style="stop-color:#4074ae;stop-opacity:1.0000000;"
         offset="0.75000000"
         id="stop4346" />
      <stop
         style="stop-color:#36486c;stop-opacity:1.0000000;"
         offset="1.0000000"
         id="stop3966" />
    </linearGradient>
    <radialGradient
       inkscape:collect="always"
       xlink:href="#linearGradient4825"
       id="radialGradient5983"
       gradientUnits="userSpaceOnUse"
       cx="12.071323"
       cy="12.493138"
       fx="12.071323"
       fy="12.493138"
       r="6.7175145" />
    <radialGradient
       inkscape:collect="always"
       xlink:href="#linearGradient4825"
       id="radialGradient5985"
       gradientUnits="userSpaceOnUse"
       cx="12.071323"
       cy="12.493138"
       fx="12.071323"
       fy="12.493138"
       r="6.7175145" />
    <radialGradient
       inkscape:collect="always"
       xlink:href="#linearGradient4825"
       id="radialGradient5987"
       gradientUnits="userSpaceOnUse"
       cx="12.071323"
       cy="12.493138"
       fx="12.071323"
       fy="12.493138"
       r="6.7175145" />
    <radialGradient
       inkscape:collect="always"
       xlink:href="#linearGradient4825"
       id="radialGradient5989"
       gradientUnits="userSpaceOnUse"
       cx="12.071323"
       cy="12.493138"
       fx="12.071323"
       fy="12.493138"
       r="6.7175145" />
    <linearGradient
       inkscape:collect="always"
       xlink:href="#linearGradient6001"
       id="linearGradient6007"
       x1="-25.176178"
       y1="30.057165"
       x2="-22.252472"
       y2="21.041553"
       gradientUnits="userSpaceOnUse" />
    <linearGradient
       inkscape:collect="always"
       xlink:href="#linearGradient6001"
       id="linearGradient6011"
       gradientUnits="userSpaceOnUse"
       x1="-25.176178"
       y1="30.057165"
       x2="-22.113543"
       y2="22.661524" />
    <linearGradient
       inkscape:collect="always"
       xlink:href="#linearGradient6001"
       id="linearGradient6015"
       gradientUnits="userSpaceOnUse"
       x1="-22.822565"
       y1="28.337734"
       x2="-22.113543"
       y2="22.661524" />
    <linearGradient
       inkscape:collect="always"
       xlink:href="#linearGradient6001"
       id="linearGradient6019"
       gradientUnits="userSpaceOnUse"
       x1="-21.658581"
       y1="15.649428"
       x2="-21.962101"
       y2="21.336346" />
    <radialGradient
       inkscape:collect="always"
       xlink:href="#linearGradient4114"
       id="radialGradient3374"
       gradientUnits="userSpaceOnUse"
       gradientTransform="scale(1.64399,0.608276)"
       cx="15.115514"
       cy="63.965388"
       fx="15.115514"
       fy="63.965388"
       r="12.289036" />
    <radialGradient
       inkscape:collect="always"
       xlink:href="#linearGradient3962"
       id="radialGradient3376"
       gradientUnits="userSpaceOnUse"
       gradientTransform="scale(0.999989,1.000011)"
       cx="18.247644"
       cy="15.716079"
       fx="18.247644"
       fy="15.716079"
       r="29.993349" />
    <radialGradient
       inkscape:collect="always"
       xlink:href="#linearGradient4126"
       id="radialGradient3378"
       gradientUnits="userSpaceOnUse"
       gradientTransform="scale(0.999989,1.000011)"
       cx="15.601279"
       cy="12.142302"
       fx="15.601279"
       fy="12.142302"
       r="43.526714" />
    <radialGradient
       inkscape:collect="always"
       xlink:href="#linearGradient3671"
       id="radialGradient4279"
       cx="29.93943"
       cy="13.148"
       fx="29.93943"
       fy="13.148"
       r="18.660955"
       gradientTransform="matrix(1,0,0,0.794608,0,2.700493)"
       gradientUnits="userSpaceOnUse" />
    <radialGradient
       inkscape:collect="always"
       xlink:href="#linearGradient3671"
       id="radialGradient1959"
       gradientUnits="userSpaceOnUse"
       gradientTransform="matrix(-1.474619,0.437756,-0.192921,-0.721105,82.49842,-4.604612)"
       cx="31.742201"
       cy="1.747267"
       fx="31.742201"
       fy="1.747267"
       r="18.660955" />
    <filter
       inkscape:collect="always"
       id="filter3893"
       x="-0.12"
       width="1.24"
       y="-0.12"
       height="1.24">
      <feGaussianBlur
         inkscape:collect="always"
         stdDeviation="15.1"
         id="feGaussianBlur3895" />
    </filter>
    <radialGradient
       inkscape:collect="always"
       xlink:href="#linearGradient3856-8"
       id="radialGradient3870-1"
       cx="197.00301"
       cy="176.04807"
       fx="197.00301"
       fy="176.04807"
       r="151"
       gradientUnits="userSpaceOnUse"
       gradientTransform="matrix(1.308173,-0.02331362,0.02538669,1.4244972,-65.381915,-69.20082)" />
    <linearGradient
       id="linearGradient3856-8">
      <stop
         style="stop-color:#a6b9d5;stop-opacity:0;"
         offset="0"
         id="stop3858-7" />
      <stop
         style="stop-color:#a6b9d5;stop-opacity:1;"
         offset="1"
         id="stop3860-1" />
    </linearGradient>
    <linearGradient
       inkscape:collect="always"
       xlink:href="#linearGradient3940"
       id="linearGradient3946"
       x1="372.53165"
       y1="-233.78462"
       x2="238.73419"
       y2="493.33847"
       gradientUnits="userSpaceOnUse"
       gradientTransform="matrix(0.88432836,0,0,0.72222222,32.022389,-7.7666644)" />
    <filter
       inkscape:collect="always"
       id="filter3958"
       x="-0.12784786"
       width="1.2556957"
       y="-0.11506307"
       height="1.2301261">
      <feGaussianBlur
         inkscape:collect="always"
         stdDeviation="16.087522"
         id="feGaussianBlur3960" />
    </filter>
    <clipPath
       clipPathUnits="userSpaceOnUse"
       id="clipPath3966">
      <path
         sodipodi:type="arc"
         style="fill:none;stroke:#6684b5;stroke-width:10;stroke-miterlimit:4;stroke-opacity:1;stroke-dasharray:none"
         id="path3968"
         sodipodi:cx="233"
         sodipodi:cy="117"
         sodipodi:rx="151"
         sodipodi:ry="151"
         d="m 384,117 a 151,151 0 1 1 -302,0 151,151 0 1 1 302,0 z" />
    </clipPath>
    <clipPath
       clipPathUnits="userSpaceOnUse"
       id="clipPath3970">
      <path
         sodipodi:type="arc"
         style="fill:none;stroke:#6684b5;stroke-width:7.52178288;stroke-miterlimit:4;stroke-opacity:1;stroke-dasharray:none"
         id="path3972"
         sodipodi:cx="233"
         sodipodi:cy="117"
         sodipodi:rx="151"
         sodipodi:ry="151"
         d="m 384,117 a 151,151 0 1 1 -302,0 151,151 0 1 1 302,0 z"
         transform="matrix(1.0895522,0,0,1.6222222,-19.73881,-0.65555811)" />
    </clipPath>
    <linearGradient
       inkscape:collect="always"
       xlink:href="#linearGradient4080"
       id="linearGradient4086"
       x1="337.70032"
       y1="-35.631809"
       x2="233.85248"
       y2="198.39148"
       gradientUnits="userSpaceOnUse" />
    <linearGradient
       gradientTransform="translate(-666.19081,-28.352951)"
       inkscape:collect="always"
       xlink:href="#linearGradient4080-0"
       id="linearGradient4086-1"
       x1="337.70032"
       y1="-35.631809"
       x2="233.85248"
       y2="198.39148"
       gradientUnits="userSpaceOnUse" />
    <linearGradient
       inkscape:collect="always"
       id="linearGradient4080-0">
      <stop
         style="stop-color:#6886b8;stop-opacity:1;"
         offset="0"
         id="stop4082-4" />
      <stop
         style="stop-color:#6886b8;stop-opacity:0;"
         offset="1"
         id="stop4084-9" />
    </linearGradient>
    <filter
       color-interpolation-filters="sRGB"
       inkscape:collect="always"
       id="filter3893-6-6"
       x="-0.12"
       width="1.24"
       y="-0.12"
       height="1.24">
      <feGaussianBlur
         inkscape:collect="always"
         stdDeviation="15.1"
         id="feGaussianBlur3895-8-0" />
    </filter>
    <clipPath
       clipPathUnits="userSpaceOnUse"
       id="clipPath4144">
      <path
         sodipodi:type="arc"
         style="fill:#000000;fill-opacity:0;stroke:#6886b7;stroke-width:10;stroke-miterlimit:4;stroke-opacity:0.73333333;stroke-dasharray:none"
         id="path4146"
         sodipodi:cx="233"
         sodipodi:cy="117"
         sodipodi:rx="151"
         sodipodi:ry="151"
         d="m 384,117 a 151,151 0 1 1 -302,0 151,151 0 1 1 302,0 z" />
    </clipPath>
    <clipPath
       clipPathUnits="userSpaceOnUse"
       id="clipPath4148">
      <path
         sodipodi:type="arc"
         style="fill:#000000;fill-opacity:0;stroke:#6886b7;stroke-width:10;stroke-miterlimit:4;stroke-opacity:0.73333333;stroke-dasharray:none"
         id="path4150"
         sodipodi:cx="233"
         sodipodi:cy="117"
         sodipodi:rx="151"
         sodipodi:ry="151"
         d="m 384,117 a 151,151 0 1 1 -302,0 151,151 0 1 1 302,0 z"
         transform="translate(0.17744568,1.3891379)" />
    </clipPath>
    <filter
       inkscape:collect="always"
       id="filter4192"
       x="-0.14755152"
       width="1.295103"
       y="-0.14755152"
       height="1.295103">
      <feGaussianBlur
         inkscape:collect="always"
         stdDeviation="18.5669"
         id="feGaussianBlur4194" />
    </filter>
    <filter
       inkscape:collect="always"
       id="filter4196"
       x="-0.14755152"
       width="1.295103"
       y="-0.14755152"
       height="1.295103">
      <feGaussianBlur
         inkscape:collect="always"
         stdDeviation="18.5669"
         id="feGaussianBlur4198" />
    </filter>
  </defs>
  <sodipodi:namedview
     id="base"
     pagecolor="#ffffff"
     bordercolor="#666666"
     borderopacity="0.17254902"
     inkscape:pageopacity="0"
     inkscape:pageshadow="2"
     inkscape:zoom="18.450336"
     inkscape:cx="23.416519"
     inkscape:cy="23.773456"
     inkscape:current-layer="layer1"
     showgrid="false"
     inkscape:grid-bbox="true"
     inkscape:document-units="px"
     inkscape:window-width="1486"
     inkscape:window-height="1028"
     inkscape:window-x="264"
     inkscape:window-y="24"
     inkscape:showpageshadow="false"
     inkscape:window-maximized="0"
     showguides="true"
     inkscape:guide-bbox="true">
    <sodipodi:guide
       orientation="1,0"
       position="-278.60007,478.00418"
       id="guide4130" />
  </sodipodi:namedview>
  <metadata
     id="metadata4">
    <rdf:RDF>
      <cc:Work
         rdf:about="">
        <dc:format>image/svg+xml</dc:format>
        <dc:type
           rdf:resource="http://purl.org/dc/dcmitype/StillImage" />
        <dc:title>Internet Category</dc:title>
        <dc:creator>
          <cc:Agent>
            <dc:title>Jakub Steiner</dc:title>
          </cc:Agent>
        </dc:creator>
        <dc:contributor>
          <cc:Agent>
            <dc:title>Tuomas Kuosmanen</dc:title>
          </cc:Agent>
        </dc:contributor>
        <cc:license
           rdf:resource="http://creativecommons.org/licenses/by-sa/2.0/" />
        <dc:source>http://jimmac.musichall.cz</dc:source>
        <dc:subject>
          <rdf:Bag>
            <rdf:li>internet</rdf:li>
            <rdf:li>tools</rdf:li>
            <rdf:li>applications</rdf:li>
            <rdf:li>category</rdf:li>
          </rdf:Bag>
        </dc:subject>
      </cc:Work>
      <cc:License
         rdf:about="http://creativecommons.org/licenses/by-sa/2.0/">
        <cc:permits
           rdf:resource="http://web.resource.org/cc/Reproduction" />
        <cc:permits
           rdf:resource="http://web.resource.org/cc/Distribution" />
        <cc:requires
           rdf:resource="http://web.resource.org/cc/Notice" />
        <cc:requires
           rdf:resource="http://web.resource.org/cc/Attribution" />
        <cc:permits
           rdf:resource="http://web.resource.org/cc/DerivativeWorks" />
        <cc:requires
           rdf:resource="http://web.resource.org/cc/ShareAlike" />
      </cc:License>
    </rdf:RDF>
  </metadata>
  <g
     id="layer1"
     inkscape:label="Layer 1"
     inkscape:groupmode="layer">
    <g
       id="world"
       transform="matrix(1.121621,0,0,1.09003,-4.455485,-3.559342)">
      <path
         transform="matrix(1,0,0,1.243244,0,-10.27241)"
         d="m 45.052803,38.908627 c 0,4.128399 -9.045214,7.475128 -20.203051,7.475128 -11.157836,0 -20.2030502,-3.346729 -20.2030502,-7.475128 0,-4.1284 9.0452142,-7.475129 20.2030502,-7.475129 11.157837,0 20.203051,3.346729 20.203051,7.475129 z"
         sodipodi:ry="7.4751287"
         sodipodi:rx="20.203051"
         sodipodi:cy="38.908627"
         sodipodi:cx="24.849752"
         id="path4112"
         style="fill:url(#radialGradient3374);fill-opacity:1;stroke:none;stroke-opacity:1"
         sodipodi:type="arc" />
      <g
         id="g3278">
        <path
           style="fill:url(#radialGradient3376);fill-opacity:1;fill-rule:nonzero;stroke:#39396c;stroke-miterlimit:4;stroke-opacity:1"
           d="M 43.959853,23.485499 C 43.959853,34.195217 35.27775,42.877222 24.569505,42.877222 C 13.860279,42.877222 5.1786663,34.195119 5.1786663,23.485499 C 5.1786663,12.776272 13.860279,4.0951517 24.569505,4.0951517 C 35.27775,4.0951517 43.959853,12.776272 43.959853,23.485499 L 43.959853,23.485499 z "
           id="path3214" />
        <g
           id="g4136"
           style="fill:#204a87;fill-opacity:0.71345029;fill-rule:nonzero;stroke:none;stroke-miterlimit:4"
           transform="matrix(0.982371,0,0,0.982371,0.121079,0.232914)">
          <g
             id="g4138"
             style="fill:#204a87">
            <g
               id="g4142"
               style="fill:#204a87">
              <path
                 d="M 43.35105,20.055623 C 43.35105,20.318323 43.35105,20.055623 43.35105,20.055623 L 42.80615,20.672823 C 42.47215,20.279223 42.09715,19.948223 41.71635,19.602523 L 40.88045,19.725523 L 40.11675,18.862223 L 40.11675,19.930623 L 40.77105,20.425723 L 41.20655,20.918923 L 41.78855,20.260723 C 41.93505,20.535123 42.07955,20.809523 42.22505,21.083923 L 42.22505,21.906223 L 41.56975,22.646423 L 40.37055,23.469623 L 39.46235,24.375923 L 38.88035,23.715723 L 39.17135,22.975523 L 38.59025,22.317323 L 37.60885,20.219623 L 36.77295,19.274323 L 36.55415,19.520423 L 36.88225,20.713823 L 37.49945,21.413023 C 37.85195,22.430623 38.20065,23.403223 38.66355,24.375923 C 39.38135,24.375923 40.05805,24.299723 40.77095,24.209923 L 40.77095,24.786123 L 39.89885,26.925323 L 39.09905,27.829623 L 38.44475,29.230023 C 38.44475,29.997623 38.44475,30.765223 38.44475,31.532723 L 38.66355,32.439023 L 38.30025,32.849223 L 37.49945,33.343323 L 36.66355,34.042523 L 37.35495,34.823823 L 36.40965,35.648023 L 36.59125,36.181223 L 35.17325,37.786723 L 34.22895,37.786723 L 33.42915,38.280823 L 32.91935,38.280823 L 32.91935,37.622623 L 32.70255,36.304223 C 32.42125,35.478023 32.12835,34.657723 31.83045,33.837423 C 31.83045,33.231923 31.86655,32.632323 31.90275,32.026923 L 32.26705,31.204623 L 31.75725,30.216323 L 31.79435,28.858923 L 31.10295,28.077623 L 31.44865,26.946723 L 30.88615,26.308523 L 29.90375,26.308523 L 29.57665,25.938423 L 28.59525,26.556123 L 28.19585,26.102523 L 27.28665,26.884223 C 26.66945,26.184523 26.05125,25.485323 25.43315,24.786123 L 24.70655,23.057623 L 25.36085,22.071323 L 24.99755,21.660223 L 25.79635,19.766623 C 26.45265,18.950223 27.13815,18.167023 27.83155,17.380923 L 29.06785,17.051823 L 30.44875,16.887723 L 31.39405,17.134823 L 32.73875,18.491223 L 33.21145,17.957023 L 33.86475,17.875023 L 35.10105,18.286123 L 36.04635,18.286123 L 36.70065,17.709923 L 36.99165,17.298823 L 36.33635,16.887723 L 35.24555,16.805723 C 34.94285,16.385823 34.66155,15.944423 34.30215,15.571323 L 33.93785,15.735423 L 33.79235,16.805723 L 33.13805,16.065523 L 32.99355,15.241323 L 32.26695,14.667123 L 31.97495,14.667123 L 32.70245,15.489423 L 32.41145,16.229623 L 31.83035,16.393723 L 32.19365,15.653523 L 31.53835,15.325423 L 30.95825,14.667223 L 29.86645,14.913323 L 29.72195,15.241423 L 29.06765,15.653523 L 28.70435,16.558823 L 27.79615,17.010923 L 27.39575,16.558823 L 26.96025,16.558823 L 26.96025,15.077423 L 27.90555,14.583323 L 28.63215,14.583323 L 28.48565,14.008123 L 27.90555,13.431923 L 28.88605,13.225823 L 29.43095,12.609623 L 29.86645,11.868423 L 30.66725,11.868423 L 30.44845,11.293223 L 30.95825,10.964123 L 30.95825,11.622323 L 32.04805,11.868423 L 33.13785,10.964123 L 33.21105,10.552023 L 34.15535,9.8943226 C 33.81355,9.9368226 33.47175,9.9680226 33.13775,10.058923 L 33.13775,9.3178224 L 33.50105,8.4950224 L 33.13775,8.4950224 L 32.33935,9.2352224 L 32.12055,9.6468226 L 32.33935,10.223523 L 31.97505,11.209823 L 31.39395,10.880723 L 30.88615,10.305523 L 30.08535,10.880723 L 29.79435,9.5648226 L 31.17525,8.6600224 L 31.17525,8.1659224 L 32.04825,7.5902224 L 33.42915,7.2606224 L 34.37445,7.5902224 L 36.11855,7.9193224 L 35.68305,8.4125224 L 34.73775,8.4125224 L 35.68305,9.3998224 L 36.40965,8.5775224 L 36.63035,8.2157224 C 36.63035,8.2157224 39.41745,10.713723 41.01025,13.446223 C 42.60305,16.179623 43.35105,19.401323 43.35105,20.055623 z "
                 id="path4144"
                 style="fill:#204a87" />
            </g>
          </g>
          <g
             id="g4146"
             style="fill:#204a87">
            <g
               id="g4150"
               style="fill:#204a87">
              <path
                 d="M 26.0703,9.2363 L 25.9971,9.7295 L 26.5069,10.0586 L 27.378,9.4829 L 26.9425,8.9892 L 26.3605,9.3188 L 26.0705,9.2363"
                 id="path4152"
                 style="fill:#204a87" />
            </g>
          </g>
          <g
             id="g4154"
             style="fill:#204a87">
            <g
               id="g4158"
               style="fill:#204a87">
              <path
                 d="M 26.8701,5.8633 L 24.9795,5.1226 L 22.7998,5.3692 L 20.1094,6.1094 L 19.6006,6.6035 L 21.2725,7.7549 L 21.2725,8.4131 L 20.6182,9.0713 L 21.4912,10.8003 L 22.0713,10.4702 L 22.7998,9.3188 C 23.9228,8.9716 24.9297,8.5781 25.9971,8.0844 L 26.8701,5.8632"
                 id="path4160"
                 style="fill:#204a87" />
            </g>
          </g>
          <g
             id="g4162"
             style="fill:#204a87">
            <g
               id="g4166"
               style="fill:#204a87">
              <path
                 d="M 28.833,12.7749 L 28.542,12.0337 L 28.0322,12.1987 L 28.1787,13.103 L 28.833,12.7749"
                 id="path4168"
                 style="fill:#204a87" />
            </g>
          </g>
          <g
             id="g4170"
             style="fill:#204a87">
            <g
               id="g4174"
               style="fill:#204a87">
              <path
                 d="M 29.123,12.6089 L 28.9775,13.5972 L 29.7773,13.4322 L 30.3584,12.857 L 29.8496,12.3629 C 29.6787,11.9078 29.4824,11.483 29.2685,11.0465 L 28.833,11.0465 L 28.833,11.5397 L 29.123,11.8688 L 29.123,12.609"
                 id="path4176"
                 style="fill:#204a87" />
            </g>
          </g>
          <g
             id="g4178"
             style="fill:#204a87">
            <g
               id="g4182"
               style="fill:#204a87">
              <path
                 d="M 17.324838,28.2422 L 16.742838,27.0899 L 15.652538,26.8433 L 15.071038,25.2808 L 13.617438,25.4449 L 12.382038,24.5406 L 11.072938,25.692 L 11.072938,25.8736 C 10.676938,25.7593 10.190138,25.7437 9.837538,25.5269 L 9.546538,24.7046 L 9.546538,23.7993 L 8.674438,23.8813 C 8.747238,23.3051 8.819438,22.7299 8.892738,22.1538 L 8.383438,22.1538 L 7.875138,22.812 L 7.365838,23.0581 L 6.638738,22.6479 L 6.565938,21.7426 L 6.711438,20.7553 L 7.802238,19.933 L 8.674338,19.933 L 8.819338,19.4389 L 9.909638,19.685 L 10.709438,20.6733 L 10.854938,19.0268 L 12.236238,17.8754 L 12.745038,16.641 L 13.762638,16.2299 L 14.344138,15.4076 L 15.652238,15.1596 L 16.307038,14.1733 C 15.652738,14.1733 14.998438,14.1733 14.344138,14.1733 L 15.579938,13.5971 L 16.451538,13.5971 L 17.687838,13.185 L 17.833338,12.6928 L 17.396838,12.2807 L 16.888038,12.1157 L 17.033538,11.6225 L 16.670238,10.8823 L 15.797638,11.2104 L 15.943138,10.5527 L 14.925538,9.9765 L 14.126238,11.3744 L 14.198538,11.8685 L 13.399238,12.1986 L 12.889938,13.2679 L 12.672138,12.2806 L 11.290838,11.7044 L 11.072538,10.9642 L 12.889938,9.8939 L 13.689738,9.1537 L 13.762538,8.2489 L 13.326538,8.0018 L 12.745038,7.9193 L 12.381738,8.8246 C 12.381738,8.8246 11.773838,8.9437 11.617538,8.9823 C 9.621438,10.8217 5.588238,14.7924 4.651238,22.2885 C 4.688338,22.4623 5.330438,23.4701 5.330438,23.4701 L 6.856838,24.3744 L 8.383238,24.7865 L 9.038038,25.6097 L 10.055138,26.3499 L 10.636638,26.2679 L 11.072638,26.4642 L 11.072638,26.597 L 10.491538,28.16 L 10.055038,28.8182 L 10.200538,29.1483 L 9.837238,30.3807 L 11.145838,32.7674 L 12.453938,33.9197 L 13.035938,34.742 L 12.962738,36.4705 L 13.399238,37.4568 L 12.962738,39.3494 C 12.962738,39.3494 12.928538,39.3377 12.984238,39.5271 C 13.040438,39.7166 15.313338,40.9783 15.457838,40.8709 C 15.601838,40.7615 15.724938,40.6658 15.724938,40.6658 L 15.579938,40.2556 L 16.161038,39.6794 L 16.379338,39.1032 L 17.324638,38.7731 L 18.051238,36.9626 L 17.833438,36.4704 L 18.341238,35.7302 L 19.432038,35.4822 L 20.014038,34.1658 L 19.868538,32.5213 L 20.740638,31.2869 L 20.886138,30.0525 C 19.692738,29.4607 18.509138,28.8513 17.324638,28.242"
                 id="path4184"
                 style="fill:#204a87" />
            </g>
          </g>
          <g
             id="g4186"
             style="fill:#204a87">
            <g
               id="g4190"
               style="fill:#204a87">
              <path
                 d="M 16.7656,9.5649 L 17.4922,10.0586 L 18.0742,10.0586 L 18.0742,9.4829 L 17.3476,9.1538 L 16.7656,9.5649"
                 id="path4192"
                 style="fill:#204a87" />
            </g>
          </g>
          <g
             id="g4194"
             style="fill:#204a87">
            <g
               id="g4198"
               style="fill:#204a87">
              <path
                 d="M 14.876,8.9072 L 14.5122,9.812 L 15.2393,9.812 L 15.6031,8.9892 C 15.9166,8.7675 16.2286,8.5444 16.5479,8.331 L 17.275,8.5781 C 17.7594,8.9072 18.2438,9.2363 18.7286,9.5649 L 19.4561,8.9072 L 18.6558,8.5781 L 18.292,7.8374 L 16.9111,7.6728 L 16.8383,7.2612 L 16.184,7.4262 L 15.8936,8.002 L 15.5298,7.2613 L 15.3848,7.5904 L 15.4576,8.4132 L 14.876,8.9072"
                 id="path4200"
                 style="fill:#204a87" />
            </g>
          </g>
          <g
             id="g4202"
             style="fill:#204a87">
            <g
               style="opacity:0.75;fill:#204a87"
               id="g4204">
              <path
                 id="path4206"
                 d=""
                 style="fill:#204a87" />
            </g>
            <g
               id="g4208"
               style="fill:#204a87">
              <path
                 id="path4210"
                 d=""
                 style="fill:#204a87" />
            </g>
          </g>
          <g
             id="g4212"
             style="fill:#204a87">
            <g
               style="opacity:0.75;fill:#204a87"
               id="g4214">
              <path
                 id="path4216"
                 d=""
                 style="fill:#204a87" />
            </g>
            <g
               id="g4218"
               style="fill:#204a87">
              <path
                 id="path4220"
                 d=""
                 style="fill:#204a87" />
            </g>
          </g>
          <g
             id="g4222"
             style="fill:#204a87">
            <g
               id="g4226"
               style="fill:#204a87">
              <path
                 d="M 17.4922,6.8496 L 17.856,6.521 L 18.5831,6.3564 C 19.0811,6.1142 19.5811,5.9511 20.1095,5.7802 L 19.8195,5.2865 L 18.881,5.4213 L 18.4376,5.8632 L 17.7066,5.9692 L 17.0567,6.2744 L 16.7408,6.4272 L 16.5479,6.6855 L 17.4922,6.8496"
                 id="path4228"
                 style="fill:#204a87" />
            </g>
          </g>
          <g
             id="g4230"
             style="fill:#204a87">
            <g
               id="g4234"
               style="fill:#204a87">
              <path
                 d="M 18.7285,14.6665 L 19.165,14.0083 L 18.5102,13.5151 L 18.7285,14.6665"
                 id="path4236"
                 style="fill:#204a87" />
            </g>
          </g>
        </g>
        <path
           style="opacity:0.39560439;fill:none;fill-opacity:1;fill-rule:nonzero;stroke:url(#radialGradient3378);stroke-miterlimit:4;stroke-opacity:1"
           d="M 42.975093,23.485534 C 42.975093,33.651354 34.733915,41.89244 24.569493,41.89244 C 14.404139,41.89244 6.1634261,33.651261 6.1634261,23.485534 C 6.1634261,13.32018 14.404139,5.079934 24.569493,5.079934 C 34.733915,5.079934 42.975093,13.32018 42.975093,23.485534 L 42.975093,23.485534 z "
           id="path4122" />
      </g>
    </g>
    <g
       id="blurb"
       transform="matrix(-0.87877,-0.282161,-0.274119,0.939113,55.71277,10.43893)">
      <path
         sodipodi:nodetypes="cccsssc"
         id="path2774"
         d="M 11.277419,11.962544 C 11.33932,14.88644 13.394535,17.488088 16.665889,19.32992 C 23.585629,29.176717 24.112921,33.976392 22.387882,21.468112 C 24.534485,21.954427 26.887974,22.196092 29.351207,22.138413 C 39.204137,21.907697 47.100243,16.974412 46.976443,11.126617 C 46.852642,5.2788196 38.328473,0.72449175 28.475544,0.95520734 C 18.622614,1.185923 11.15362,6.114746 11.277419,11.962544 z "
         style="fill:url(#radialGradient1959);fill-opacity:1;fill-rule:evenodd;stroke:black;stroke-width:1;stroke-linecap:butt;stroke-linejoin:miter;stroke-miterlimit:4;stroke-dasharray:none;stroke-opacity:1;display:inline"
         inkscape:transform-center-x="-9.1250001"
         inkscape:transform-center-y="5.5000001" />
      <path
         style="opacity:0.77777782;fill:none;fill-opacity:1;fill-rule:evenodd;stroke:white;stroke-width:1;stroke-linecap:butt;stroke-linejoin:round;marker-start:none;marker-mid:none;stroke-miterlimit:4;stroke-dasharray:none;stroke-opacity:1;display:inline"
         d="M 12.217482,11.985193 C 12.276256,14.628526 14.311477,16.939319 17.4176,18.604418 C 23.322847,29.641107 23.26067,29.738976 21.252608,20.30281 C 23.29079,20.74246 27.039577,21.236779 29.378396,21.184634 C 38.733674,20.976057 46.230962,16.516145 46.113414,11.229477 C 45.995868,5.9428052 38.132093,1.7022765 28.776817,1.9108538 C 19.42154,2.1194311 12.099936,6.6985206 12.217482,11.985193 z "
         id="highlight"
         sodipodi:nodetypes="cccsssc" />
    </g>
    <path
       style="fill:#000000"
       d=""
       id="path3974"
       inkscape:connector-curvature="0" />
  </g>
</svg>
